<svg width="133" height="110" viewBox="0 0 133 110" fill="none" xmlns="http://www.w3.org/2000/svg">
<path d="M130.167 16.6357C130.226 16.6761 130.28 16.7136 130.33 16.7482C130.295 16.7979 130.257 16.8518 130.215 16.9099C129.959 17.2704 129.577 17.7899 129.077 18.4215C128.077 19.6853 126.608 21.3951 124.736 23.1764C120.984 26.7461 115.652 30.565 109.257 31.7041C109.174 31.7188 109.091 31.733 109.009 31.7468C107.278 24.7504 103.739 18.1492 98.4899 12.3625C100.634 11.2734 102.968 10.4188 105.464 9.97425C111.859 8.83519 118.163 10.5817 122.897 12.64C125.259 13.6671 127.218 14.7665 128.586 15.6086C129.269 16.0295 129.804 16.3857 130.167 16.6357Z" fill="white"/>
<path d="M130.167 16.6357C130.226 16.6761 130.28 16.7136 130.33 16.7482C130.295 16.7979 130.257 16.8518 130.215 16.9099C129.959 17.2704 129.577 17.7899 129.077 18.4215C128.077 19.6853 126.608 21.3951 124.736 23.1764C120.984 26.7461 115.652 30.565 109.257 31.7041C109.174 31.7188 109.091 31.733 109.009 31.7468C107.278 24.7504 103.739 18.1492 98.4899 12.3625C100.634 11.2734 102.968 10.4188 105.464 9.97425C111.859 8.83519 118.163 10.5817 122.897 12.64C125.259 13.6671 127.218 14.7665 128.586 15.6086C129.269 16.0295 129.804 16.3857 130.167 16.6357Z" stroke="white"/>
<path d="M130.167 16.6357C130.226 16.6761 130.28 16.7136 130.33 16.7482C130.295 16.7979 130.257 16.8518 130.215 16.9099C129.959 17.2704 129.577 17.7899 129.077 18.4215C128.077 19.6853 126.608 21.3951 124.736 23.1764C120.984 26.7461 115.652 30.565 109.257 31.7041C109.174 31.7188 109.091 31.733 109.009 31.7468C107.278 24.7504 103.739 18.1492 98.4899 12.3625C100.634 11.2734 102.968 10.4188 105.464 9.97425C111.859 8.83519 118.163 10.5817 122.897 12.64C125.259 13.6671 127.218 14.7665 128.586 15.6086C129.269 16.0295 129.804 16.3857 130.167 16.6357Z" stroke="white"/>
<path d="M2.68086 16.6222C2.7299 16.589 2.78326 16.5531 2.84085 16.5147C3.21347 16.2662 3.76269 15.9125 4.46448 15.4948C5.86858 14.6591 7.88056 13.5688 10.3084 12.553C15.1731 10.5176 21.6603 8.80074 28.2595 9.97614C30.8364 10.4351 33.2471 11.3041 35.4632 12.4071C30.0913 18.1701 26.4828 24.7575 24.7369 31.7508C24.6467 31.7359 24.5566 31.7204 24.4666 31.7044C17.8676 30.529 12.3529 26.6745 8.47075 23.0812C6.53324 21.2878 5.0117 19.5682 3.97524 18.2978C3.45719 17.6628 3.06085 17.1407 2.79481 16.7785C2.7537 16.7225 2.71571 16.6703 2.68086 16.6222Z" fill="white"/>
<path d="M2.68086 16.6222C2.7299 16.589 2.78326 16.5531 2.84085 16.5147C3.21347 16.2662 3.76269 15.9125 4.46448 15.4948C5.86858 14.6591 7.88056 13.5688 10.3084 12.553C15.1731 10.5176 21.6603 8.80074 28.2595 9.97614C30.8364 10.4351 33.2471 11.3041 35.4632 12.4071C30.0913 18.1701 26.4828 24.7575 24.7369 31.7508C24.6467 31.7359 24.5566 31.7204 24.4666 31.7044C17.8676 30.529 12.3529 26.6745 8.47075 23.0812C6.53324 21.2878 5.0117 19.5682 3.97524 18.2978C3.45719 17.6628 3.06085 17.1407 2.79481 16.7785C2.7537 16.7225 2.71571 16.6703 2.68086 16.6222Z" stroke="white"/>
<path d="M2.68086 16.6222C2.7299 16.589 2.78326 16.5531 2.84085 16.5147C3.21347 16.2662 3.76269 15.9125 4.46448 15.4948C5.86858 14.6591 7.88056 13.5688 10.3084 12.553C15.1731 10.5176 21.6603 8.80074 28.2595 9.97614C30.8364 10.4351 33.2471 11.3041 35.4632 12.4071C30.0913 18.1701 26.4828 24.7575 24.7369 31.7508C24.6467 31.7359 24.5566 31.7204 24.4666 31.7044C17.8676 30.529 12.3529 26.6745 8.47075 23.0812C6.53324 21.2878 5.0117 19.5682 3.97524 18.2978C3.45719 17.6628 3.06085 17.1407 2.79481 16.7785C2.7537 16.7225 2.71571 16.6703 2.68086 16.6222Z" stroke="white"/>
<path d="M95.9886 14.6017V14.7568L96.0764 14.8847L99.8237 20.3429C101.798 23.2192 103.36 26.2179 104.515 29.2871L100.306 31.783C93.3706 35.8964 88.3723 41.5509 85.8843 48.1492C83.3945 54.7522 83.6568 61.671 86.6389 68.1416L95.2695 86.87C95.4419 88.3538 95.7056 89.8344 96.0635 91.3056L96.7358 94.0694C97.699 98.0296 96.2639 101.866 93.2495 104.737C90.2312 107.611 85.6391 109.5 80.3701 109.5H53.8766C48.6078 109.5 44.0158 107.611 40.9975 104.736C37.9831 101.866 36.5479 98.0293 37.5111 94.0692L38.1834 91.3054C38.5413 89.8344 38.805 88.354 38.9774 86.8705L47.6084 68.1416C50.5904 61.671 50.8524 54.7522 48.3627 48.1493C45.875 41.5509 40.8767 35.8964 33.941 31.783L29.7326 29.2871C30.8873 26.2179 32.4489 23.2192 34.4235 20.3429L38.1709 14.8847L38.2587 14.7568V14.6017C38.2587 6.91838 46.2203 0.5 56.3049 0.5H77.9424C88.027 0.5 95.9886 6.91838 95.9886 14.6017ZM57.9566 98.7704C60.3921 98.7704 62.3665 96.796 62.3665 94.3604C62.3665 91.9249 60.3921 89.9505 57.9566 89.9505H57.7865C55.351 89.9505 53.3766 91.9249 53.3766 94.3604C53.3766 96.796 55.351 98.7704 57.7865 98.7704H57.9566ZM76.4601 98.7704C78.8956 98.7704 80.87 96.796 80.87 94.3604C80.87 91.9249 78.8957 89.9505 76.4601 89.9505H76.2907C73.8551 89.9505 71.8807 91.9249 71.8807 94.3604C71.8807 96.796 73.8551 98.7704 76.2907 98.7704H76.4601Z" fill="white"/>
<path d="M95.9886 14.6017V14.7568L96.0764 14.8847L99.8237 20.3429C101.798 23.2192 103.36 26.2179 104.515 29.2871L100.306 31.783C93.3706 35.8964 88.3723 41.5509 85.8843 48.1492C83.3945 54.7522 83.6568 61.671 86.6389 68.1416L95.2695 86.87C95.4419 88.3538 95.7056 89.8344 96.0635 91.3056L96.7358 94.0694C97.699 98.0296 96.2639 101.866 93.2495 104.737C90.2312 107.611 85.6391 109.5 80.3701 109.5H53.8766C48.6078 109.5 44.0158 107.611 40.9975 104.736C37.9831 101.866 36.5479 98.0293 37.5111 94.0692L38.1834 91.3054C38.5413 89.8344 38.805 88.354 38.9774 86.8705L47.6084 68.1416C50.5904 61.671 50.8524 54.7522 48.3627 48.1493C45.875 41.5509 40.8767 35.8964 33.941 31.783L29.7326 29.2871C30.8873 26.2179 32.4489 23.2192 34.4235 20.3429L38.1709 14.8847L38.2587 14.7568V14.6017C38.2587 6.91838 46.2203 0.5 56.3049 0.5H77.9424C88.027 0.5 95.9886 6.91838 95.9886 14.6017ZM57.9566 98.7704C60.3921 98.7704 62.3665 96.796 62.3665 94.3604C62.3665 91.9249 60.3921 89.9505 57.9566 89.9505H57.7865C55.351 89.9505 53.3766 91.9249 53.3766 94.3604C53.3766 96.796 55.351 98.7704 57.7865 98.7704H57.9566ZM76.4601 98.7704C78.8956 98.7704 80.87 96.796 80.87 94.3604C80.87 91.9249 78.8957 89.9505 76.4601 89.9505H76.2907C73.8551 89.9505 71.8807 91.9249 71.8807 94.3604C71.8807 96.796 73.8551 98.7704 76.2907 98.7704H76.4601Z" stroke="white"/>
<path d="M95.9886 14.6017V14.7568L96.0764 14.8847L99.8237 20.3429C101.798 23.2192 103.36 26.2179 104.515 29.2871L100.306 31.783C93.3706 35.8964 88.3723 41.5509 85.8843 48.1492C83.3945 54.7522 83.6568 61.671 86.6389 68.1416L95.2695 86.87C95.4419 88.3538 95.7056 89.8344 96.0635 91.3056L96.7358 94.0694C97.699 98.0296 96.2639 101.866 93.2495 104.737C90.2312 107.611 85.6391 109.5 80.3701 109.5H53.8766C48.6078 109.5 44.0158 107.611 40.9975 104.736C37.9831 101.866 36.5479 98.0293 37.5111 94.0692L38.1834 91.3054C38.5413 89.8344 38.805 88.354 38.9774 86.8705L47.6084 68.1416C50.5904 61.671 50.8524 54.7522 48.3627 48.1493C45.875 41.5509 40.8767 35.8964 33.941 31.783L29.7326 29.2871C30.8873 26.2179 32.4489 23.2192 34.4235 20.3429L38.1709 14.8847L38.2587 14.7568V14.6017C38.2587 6.91838 46.2203 0.5 56.3049 0.5H77.9424C88.027 0.5 95.9886 6.91838 95.9886 14.6017ZM57.9566 98.7704C60.3921 98.7704 62.3665 96.796 62.3665 94.3604C62.3665 91.9249 60.3921 89.9505 57.9566 89.9505H57.7865C55.351 89.9505 53.3766 91.9249 53.3766 94.3604C53.3766 96.796 55.351 98.7704 57.7865 98.7704H57.9566ZM76.4601 98.7704C78.8956 98.7704 80.87 96.796 80.87 94.3604C80.87 91.9249 78.8957 89.9505 76.4601 89.9505H76.2907C73.8551 89.9505 71.8807 91.9249 71.8807 94.3604C71.8807 96.796 73.8551 98.7704 76.2907 98.7704H76.4601Z" stroke="white"/>
<path d="M96.4854 39.6347C99.0289 37.184 101.517 35.3247 102.573 34.6804L105.454 33.2416C106.995 43.7365 107.422 53.7824 100.682 63.3681C99.3454 65.2692 97.1941 68.65 95.8687 71.7581C95.1209 72.8825 94.8147 73.6593 94.5722 74.4439C94.5174 74.6211 94.4667 74.7952 94.4154 74.9714C94.3241 75.2852 94.2307 75.6059 94.1085 75.9639L90.1308 66.9762C87.6295 60.5058 87.6431 53.9565 90.1296 48.0454C91.3605 45.1192 93.9233 42.1033 96.4854 39.6347Z" fill="white"/>
<path d="M96.4854 39.6347C99.0289 37.184 101.517 35.3247 102.573 34.6804L105.454 33.2416C106.995 43.7365 107.422 53.7824 100.682 63.3681C99.3454 65.2692 97.1941 68.65 95.8687 71.7581C95.1209 72.8825 94.8147 73.6593 94.5722 74.4439C94.5174 74.6211 94.4667 74.7952 94.4154 74.9714C94.3241 75.2852 94.2307 75.6059 94.1085 75.9639L90.1308 66.9762C87.6295 60.5058 87.6431 53.9565 90.1296 48.0454C91.3605 45.1192 93.9233 42.1033 96.4854 39.6347Z" stroke="white"/>
<path d="M96.4854 39.6347C99.0289 37.184 101.517 35.3247 102.573 34.6804L105.454 33.2416C106.995 43.7365 107.422 53.7824 100.682 63.3681C99.3454 65.2692 97.1941 68.65 95.8687 71.7581C95.1209 72.8825 94.8147 73.6593 94.5722 74.4439C94.5174 74.6211 94.4667 74.7952 94.4154 74.9714C94.3241 75.2852 94.2307 75.6059 94.1085 75.9639L90.1308 66.9762C87.6295 60.5058 87.6431 53.9565 90.1296 48.0454C91.3605 45.1192 93.9233 42.1033 96.4854 39.6347Z" stroke="white"/>
<path d="M37.3635 39.6347C34.82 37.184 32.3322 35.3247 31.2755 34.6804L28.3948 33.2416C26.8543 43.7365 26.4265 53.7824 33.1667 63.3681C34.5034 65.2692 36.6548 68.65 37.9801 71.7581C38.728 72.8825 39.0342 73.6593 39.2767 74.4439C39.3315 74.6211 39.3821 74.7952 39.4334 74.9714C39.5248 75.2852 39.6181 75.6059 39.7403 75.9639L43.7181 66.9762C46.2193 60.5058 46.2058 53.9565 43.7193 48.0454C42.4883 45.1192 39.9256 42.1033 37.3635 39.6347Z" fill="white"/>
<path d="M37.3635 39.6347C34.82 37.184 32.3322 35.3247 31.2755 34.6804L28.3948 33.2416C26.8543 43.7365 26.4265 53.7824 33.1667 63.3681C34.5034 65.2692 36.6548 68.65 37.9801 71.7581C38.728 72.8825 39.0342 73.6593 39.2767 74.4439C39.3315 74.6211 39.3821 74.7952 39.4334 74.9714C39.5248 75.2852 39.6181 75.6059 39.7403 75.9639L43.7181 66.9762C46.2193 60.5058 46.2058 53.9565 43.7193 48.0454C42.4883 45.1192 39.9256 42.1033 37.3635 39.6347Z" stroke="white"/>
<path d="M37.3635 39.6347C34.82 37.184 32.3322 35.3247 31.2755 34.6804L28.3948 33.2416C26.8543 43.7365 26.4265 53.7824 33.1667 63.3681C34.5034 65.2692 36.6548 68.65 37.9801 71.7581C38.728 72.8825 39.0342 73.6593 39.2767 74.4439C39.3315 74.6211 39.3821 74.7952 39.4334 74.9714C39.5248 75.2852 39.6181 75.6059 39.7403 75.9639L43.7181 66.9762C46.2193 60.5058 46.2058 53.9565 43.7193 48.0454C42.4883 45.1192 39.9256 42.1033 37.3635 39.6347Z" stroke="white"/>
</svg>
